<svg width="103" height="103" viewBox="0 0 103 103" fill="none" xmlns="http://www.w3.org/2000/svg">
<path fill-rule="evenodd" clip-rule="evenodd" d="M22.8398 51.6023C28.1993 36.8771 51.0924 11.241 64.9903 16.2994C78.887 21.3574 79.9467 55.7116 74.5872 70.4368C69.4036 84.6785 53.5787 92.0411 39.3125 86.8486C25.045 81.6557 17.6562 65.8439 22.8398 51.6023ZM20.5227 50.7589C14.8748 66.2763 22.9264 83.5041 38.4705 89.1617C54.0147 94.8193 71.2564 86.7975 76.9042 71.2801C82.6889 55.3869 81.2593 19.6013 65.8321 13.9863C50.405 8.3713 26.3073 34.8657 20.5227 50.7589ZM36.6086 59.5556C38.924 53.1941 45.9841 49.9008 52.3464 52.2165C58.7088 54.5322 62.0002 61.5932 59.6848 67.9547C57.3694 74.3161 50.3098 77.6083 43.9474 75.2926C37.5851 72.9769 34.2932 65.9171 36.6086 59.5556ZM34.2752 58.7063C31.4914 66.3547 35.4489 74.8421 43.0982 77.6262C50.7475 80.4103 59.2347 76.4525 62.0185 68.804C64.8027 61.1544 60.8452 52.667 53.1959 49.8829C45.5466 47.0988 37.0594 51.0567 34.2752 58.7063Z" fill="#FF7CF8"/>
</svg>
