<svg width="142" height="142" viewBox="0 0 142 142" fill="none" xmlns="http://www.w3.org/2000/svg">
<path d="M96.252 115.147C95.9337 115.264 95.5836 115.258 95.2692 115.132C94.9548 115.005 94.6985 114.766 94.5499 114.462C94.4012 114.157 94.3707 113.808 94.4643 113.483C94.5579 113.157 94.7688 112.877 95.0565 112.698C122.683 95.3015 124.216 65.1372 116.306 42.1645L107.369 45.4172C107.028 45.5414 106.651 45.525 106.322 45.3715C105.992 45.2179 105.738 44.9399 105.613 44.5985C105.489 44.2571 105.506 43.8803 105.659 43.551C105.813 43.2217 106.091 42.967 106.432 42.8427L116.619 39.135C116.96 39.0107 117.337 39.0272 117.666 39.1807C117.996 39.3343 118.25 39.6123 118.375 39.9537C131.766 76.7467 115.841 102.868 96.4768 115.044L96.252 115.147Z" fill="#FF7CF8"/>
<path d="M42.0996 67.359L19.2317 36.5426L14.8407 39.3468L39.9916 68.4828L42.0996 67.359Z" fill="#FF7CF8"/>
<path d="M36.6471 70.0987L8.13603 44.4091L4.38777 48.0282L34.8053 71.6081L36.6471 70.0987Z" fill="#FF7CF8"/>
<path d="M110.842 47.3518C113.087 53.5213 114.096 60.0726 113.809 66.6318C113.523 73.1909 111.948 79.6295 109.173 85.5798C106.398 91.5301 102.479 96.8756 97.6382 101.311C92.7977 105.747 87.1309 109.185 80.9614 111.431C74.7919 113.676 68.2406 114.685 61.6814 114.398C55.1222 114.112 48.6837 112.536 42.7334 109.762C36.7831 106.987 31.4376 103.068 27.0021 98.2271C22.5665 93.3866 19.1278 87.7198 16.8823 81.5503L110.842 47.3518Z" fill="#009341"/>
</svg>
