<svg width="96" height="95" viewBox="0 0 96 95" fill="none" xmlns="http://www.w3.org/2000/svg">
<path fill-rule="evenodd" clip-rule="evenodd" d="M18.7682 31.0248L19.2108 32.3704L21.9588 31.4807L21.5163 30.1351C20.7131 27.6892 20.3776 25.5608 20.3687 23.7262C27.5005 22.5201 31.9347 24.491 34.2652 29.8701C35.0194 31.6095 35.7614 34.1687 36.545 36.8766L36.5459 36.8798C38.5164 43.6804 40.9679 52.1409 45.8964 56.3518C57.1101 65.9293 64.5461 62.4171 78.0459 56.0407L78.0477 56.0399L78.0684 56.0301C82.0632 54.1438 86.5898 52.0063 91.9935 49.8182C92.4656 49.6298 92.7968 49.9056 92.915 50.0366C93.0309 50.1637 93.2734 50.508 93.0329 50.9493C85.2537 65.1787 72.6471 75.1763 58.449 78.3814C46.8178 81.0623 35.395 78.8523 26.3388 72.3002C19.4142 67.2926 11.0308 55.6716 7.91233 41.0005C5.96569 31.8423 8.92415 26.6499 17.4931 24.3516C17.565 26.3236 17.9535 28.5434 18.7682 31.0248ZM17.6247 21.4556C6.91017 24.0191 2.835 30.6116 5.16728 41.5841C8.43807 56.9719 17.3221 69.2271 24.6773 74.5461C34.2414 81.4628 46.2155 83.8236 58.4588 81.2213C58.6591 81.1787 58.8606 81.1344 59.0604 81.0891C74.0513 77.7055 87.3328 67.1984 95.4998 52.2624C96.2331 50.9204 96.0401 49.3171 95.0077 48.1788C93.9725 47.034 92.3794 46.6661 90.9423 47.2482C85.4539 49.4703 80.8832 51.6294 76.8498 53.5352L76.8404 53.5396C63.6049 59.7888 57.5619 62.6421 47.7341 54.2461C43.4353 50.5728 41.1118 42.5534 39.2433 36.1046L39.2418 36.0992L39.2335 36.0705C38.3922 33.1679 37.6654 30.6602 36.8435 28.7646C34.082 22.3938 28.6377 19.7462 20.6448 20.8771C21.4223 17.181 23.6817 15.1688 25.3501 14.4909L26.6877 13.9474L25.6036 11.3275L24.2664 11.8724C21.8209 12.8649 18.367 15.9018 17.6247 21.4556Z" fill="#FF7CF8"/>
</svg>
