<svg width="104" height="104" viewBox="0 0 104 104" fill="none" xmlns="http://www.w3.org/2000/svg">
<path fill-rule="evenodd" clip-rule="evenodd" d="M41.5497 49.0945L42.7346 48.6633C44.3058 48.0914 45.5854 46.9188 46.292 45.4035C46.9987 43.8881 47.0744 42.1541 46.5025 40.5829L44.3462 34.6585L43.4837 32.2889L37.4464 15.7014L35.0767 16.5638L41.1141 33.1514L31.6354 36.6013L25.5981 20.0138L23.2284 20.8763L29.2658 37.4638L19.787 40.9138L13.7497 24.3262L11.38 25.1887L17.4174 41.7763L18.2799 44.1459L20.4361 50.0703C21.008 51.6415 22.1806 52.9211 23.696 53.6278C25.2114 54.3344 26.9454 54.4101 28.5165 53.8382L29.7013 53.407L43.07 90.137C43.6418 91.7082 44.8144 92.9878 46.3298 93.6944C47.8452 94.4011 49.5792 94.4768 51.1504 93.9049C52.7215 93.333 54.0012 92.1605 54.7078 90.6451C55.4145 89.1297 55.4902 87.3957 54.9183 85.8245L41.5497 49.0945ZM20.6495 43.2834L22.8058 49.2078C23.1489 50.1505 23.8525 50.9183 24.7617 51.3423C25.6709 51.7663 26.7113 51.8117 27.6541 51.4686L41.8721 46.2936C42.8148 45.9505 43.5826 45.2469 44.0066 44.3377C44.4306 43.4285 44.476 42.3881 44.1328 41.4454L41.9766 35.521L32.4979 38.971L32.498 38.9711L30.1283 39.8336L30.1282 39.8335L20.6495 43.2834ZM39.18 49.957L32.071 52.5445L45.4396 89.2745C45.7828 90.2172 46.4863 90.985 47.3955 91.409C48.3047 91.8329 49.3452 91.8784 50.2879 91.5352C51.2306 91.1921 51.9984 90.4886 52.4224 89.5793C52.8464 88.6701 52.8918 87.6297 52.5486 86.687L39.18 49.957ZM80.7626 53.6073L73.6536 56.1948L80.9847 76.3369C81.3278 77.2796 82.0314 78.0475 82.9406 78.4714C83.8498 78.8954 84.8903 78.9408 85.833 78.5977C86.7757 78.2546 87.5435 77.551 87.9675 76.6418C88.3915 75.7326 88.4369 74.6922 88.0937 73.7495L80.7626 53.6073ZM71.2839 57.0573L66.5444 58.7823L54.9008 26.7918C53.414 22.7067 53.6108 18.1983 55.448 14.2583C57.2853 10.3184 60.6124 7.26961 64.6975 5.78276L65.8823 5.35151L82.7008 51.56L82.701 51.5599L90.4634 72.887C91.0353 74.4582 90.9596 76.1922 90.2529 77.7075C89.5463 79.2229 88.2666 80.3955 86.6955 80.9674C85.1243 81.5392 83.3903 81.4635 81.8749 80.7569C80.3595 80.0503 79.1869 78.7706 78.6151 77.1994L71.2839 57.0573ZM79.8999 51.2377L68.0516 55.5502L57.2705 25.9293C56.0701 22.6734 56.1339 19.0859 57.4491 15.8747C58.7644 12.6635 61.2357 10.062 64.3751 8.58367L79.8999 51.2377Z" fill="#009341"/>
</svg>
