<svg width="103" height="103" viewBox="0 0 103 103" fill="none" xmlns="http://www.w3.org/2000/svg">
<path fill-rule="evenodd" clip-rule="evenodd" d="M37.2923 55.9346L41.0653 29.8453L29.5171 25.6422L20.6909 49.8921L37.2923 55.9346ZM36.915 58.5435L34.9946 71.8231L37.5399 72.1865L39.3833 59.4419L63.4585 68.2045L56.8387 86.3923C56.2535 88.0002 55.0535 89.3097 53.5027 90.0329C51.9519 90.756 50.1775 90.8335 48.5696 90.2483L17.0444 78.774C15.4365 78.1888 14.1269 76.9888 13.4038 75.4381C12.6807 73.8873 12.6032 72.1128 13.1884 70.5049L19.8082 52.3171L36.915 58.5435ZM17.3832 51.4345L10.7634 69.6223C9.94409 71.8733 10.0526 74.3576 11.065 76.5287C12.0773 78.6998 13.9107 80.3797 16.1617 81.199L47.6869 92.6733C49.938 93.4926 52.4222 93.3841 54.5933 92.3717C56.7644 91.3593 58.4444 89.526 59.2637 87.2749L70.3136 56.9156C73.0796 57.6873 76.005 57.7378 78.8083 57.0519C82.0309 56.2633 84.9472 54.5369 87.1886 52.0909C89.4299 49.6449 90.8956 46.5891 91.4003 43.3101C91.905 40.0311 91.426 36.6761 90.0239 33.6693C88.6218 30.6625 86.3596 28.139 83.5233 26.4179C80.687 24.6968 77.4041 23.8554 74.0896 24.0001C70.7752 24.1449 67.578 25.2692 64.9026 27.2309C62.5752 28.9374 60.7335 31.2109 59.5467 33.8258L43.9116 28.1351L46.9305 7.26361L32.6108 2.05167L31.7282 4.47668L44.0836 8.97369L41.4426 27.2364L27.9747 22.3345L18.2658 49.0095L17.3832 51.4345ZM64.3411 65.7795L39.7607 56.833L43.5343 30.744L73.1674 41.5296L64.3411 65.7795ZM71.1993 54.482C73.4828 55.0847 75.8878 55.1097 78.1949 54.5452C80.9217 53.8779 83.3894 52.4171 85.2859 50.3474C87.1824 48.2777 88.4227 45.6921 88.8497 42.9176C89.2767 40.143 88.8714 37.3041 87.685 34.7599C86.4986 32.2157 84.5845 30.0805 82.1846 28.6242C79.7847 27.1679 77.0068 26.4559 74.2022 26.5784C71.3977 26.7008 68.6924 27.6521 66.4285 29.3121C64.5131 30.7166 62.9864 32.5749 61.9803 34.7115L76.475 39.9872L71.1993 54.482Z" fill="#009341"/>
</svg>
