<svg width="94" height="94" viewBox="0 0 94 94" fill="none" xmlns="http://www.w3.org/2000/svg">
<path fill-rule="evenodd" clip-rule="evenodd" d="M27.4519 68.2137C15.9755 62.7759 10.6149 48.864 9.5224 45.696C11.6017 43.1691 21.0398 32.4768 33.109 30.806C36.3793 38.0294 37.3389 44.1167 36.2203 50.4605C34.9724 57.5379 32.1021 63.3542 27.4519 68.2137ZM30.0959 69.2722C31.0929 69.6006 32.1304 69.8649 33.2094 70.0552C51.6087 73.2994 66.0257 59.2605 68.9422 56.1692C67.4673 52.7585 60.5899 38.491 46.6325 32.8079L45.8576 32.4936L45.811 31.655C45.6077 27.9396 46.2832 24.4356 47.6931 21.6964C43.0008 21.8797 38.0675 25.2013 35.1835 29.0475L35.2178 29.0315C38.9236 36.9582 40.0735 43.9138 38.8378 50.922C37.5608 58.164 34.6953 64.1871 30.0959 69.2722ZM12.5845 57.9196C17.971 66.1895 24.9438 71.2897 32.7489 72.666C52.7744 76.197 67.8284 61.2863 70.9236 57.9323L83.0996 71.9347L87.7947 45.307L71.1262 54.5431C69.1589 50.11 62.2496 36.7076 48.4215 30.6863C48.3659 26.9928 49.3215 23.5437 51.0327 21.3394L52.3813 19.6015L50.2206 19.2205C43.4145 18.0204 36.1591 22.8755 32.5329 28.2117C17.9424 30.3482 7.43733 44.0406 6.99146 44.6295L6.58586 45.165L6.77666 45.8096C6.84857 46.0484 8.56531 51.7467 12.5845 57.9196ZM22.8582 40.8303C22.6298 42.1261 23.4977 43.3656 24.7935 43.5941C26.0892 43.8226 27.3288 42.9546 27.5572 41.6589C27.7857 40.3631 26.9178 39.1236 25.622 38.8951C24.3263 38.6666 23.0867 39.5346 22.8582 40.8303ZM73.1787 56.4576L81.4581 65.9777L84.2148 50.3434L73.1787 56.4576Z" fill="#009341"/>
</svg>
