<svg width="80" height="80" viewBox="0 0 80 80" fill="none" xmlns="http://www.w3.org/2000/svg">
<path fill-rule="evenodd" clip-rule="evenodd" d="M5.49972 38.0363C5.49972 23.8695 13.7501 11.002 26.5974 5.00858L32.501 11.4534C20.9464 15.4053 12.9983 26.2934 12.9983 38.4308C12.9983 54.1855 26.0099 67.0012 42.0025 67.0012C53.3952 67.0012 63.5161 60.5833 68.2713 50.5024L73.6897 56.4175C67.1304 67.5995 55.1055 74.5085 42.0907 74.5085C21.9142 74.5085 5.49972 58.1467 5.49972 38.0363ZM66.4215 48.4831L51.8735 32.6016L50.3791 63.1977C57.5197 60.8707 63.4031 55.6054 66.4215 48.4831ZM47.7975 28.152L34.3508 13.4727C26.2204 15.8883 19.8989 22.0157 17.0968 29.6148L47.7975 28.152ZM3 38.0362C3 59.5207 20.5356 77 42.0907 77C56.3129 77 69.4289 69.2787 76.3194 56.8473L76.7531 56.0649L27.2261 2L26.4062 2.35878C12.1865 8.57888 3 22.5825 3 38.0362ZM22.5883 56.1573L49.5949 32.109L48.0449 63.8425C46.0964 64.2869 44.0724 64.5189 42.0025 64.5189C34.3411 64.5189 27.4287 61.2974 22.5883 56.1573ZM47.6709 30.5019L20.975 54.2745C17.5537 49.879 15.5182 44.3846 15.5182 38.4308C15.5182 36.2266 15.8053 34.0675 16.3482 31.9944L47.6709 30.5019Z" fill="#FF7CF8"/>
</svg>
