<svg width="93" height="93" viewBox="0 0 93 93" fill="none" xmlns="http://www.w3.org/2000/svg">
<path fill-rule="evenodd" clip-rule="evenodd" d="M76.6996 14.1022L76.5231 13.1017C75.6691 8.25835 71.0335 5.01248 66.1902 5.8665L32.1669 11.8657L31.7356 9.41958L65.7589 3.42036C71.9513 2.32847 77.8774 6.47799 78.9693 12.6704L79.1457 13.6709L79.1459 13.6709L79.3615 14.894C81.8587 29.0559 72.3691 42.6099 58.206 45.1072L50.8676 46.4012C38.5231 48.5779 33.4385 54.8366 35.3251 65.536C37.0173 75.1326 49.2624 79.4363 56.6813 80.5543L79.3732 57.8688L83.0224 78.5643L53.4572 83.7775L53.4573 83.7774L46.7223 84.9649C38.1071 86.484 29.0262 84.4117 21.8055 79.2785C14.8297 74.3178 10.2592 67.0855 8.93843 58.9157C6.09236 41.2944 17.2868 24.5783 33.8924 21.6503L76.6996 14.1022ZM16.6991 35.4034C20.8555 29.5872 27.0193 25.3844 34.3237 24.0964L43.1392 22.542L47.0465 44.7018C42.901 45.8164 39.62 47.5166 37.2287 49.7708L16.6991 35.4034ZM15.3406 37.4813C11.7483 43.5039 10.1631 50.92 11.3908 58.5199C11.9504 61.98 13.146 65.2589 14.9023 68.2362L32.7379 65.0913C31.9432 59.6286 32.9037 55.1134 35.5544 51.6276L15.3406 37.4813ZM33.113 67.056L16.0748 70.0603C17.9843 72.7955 20.3969 75.2289 23.2456 77.254C29.9271 82.0043 38.3276 83.923 46.291 82.5188L50.6867 81.7437C43.4329 79.5878 35.1492 75.0587 33.113 67.056ZM48.995 44.2346C49.4656 44.1347 49.946 44.0415 50.4362 43.9551L57.7746 42.6611C70.1778 40.4741 78.6204 28.9143 77.0992 16.554L45.1088 22.1947L48.995 44.2346ZM55.618 30.4305C54.2689 30.6684 52.9784 29.7647 52.7405 28.4157C52.5027 27.0666 53.4063 25.7761 54.7553 25.5382C56.1044 25.3003 57.3949 26.204 57.6328 27.553C57.8707 28.9021 56.967 30.1926 55.618 30.4305ZM60.7862 79.963L80.1449 76.5495L77.7556 62.9991L60.7862 79.963Z" fill="#FF7CF8"/>
</svg>
