<svg width="48" height="48" viewBox="0 0 48 48" fill="none" xmlns="http://www.w3.org/2000/svg">
<path d="M0 24C0 10.7452 10.7452 0 24 0C37.2548 0 48 10.7452 48 24C48 37.2548 37.2548 48 24 48C10.7452 48 0 37.2548 0 24Z" fill="white"/>
<path fill-rule="evenodd" clip-rule="evenodd" d="M13.7142 20.7143C13.7142 16.8483 16.8482 13.7143 20.7142 13.7143H27.2857C31.1516 13.7143 34.2857 16.8483 34.2857 20.7143V27.2857C34.2857 31.1517 31.1517 34.2857 27.2857 34.2857H20.7142C16.8482 34.2857 13.7142 31.1517 13.7142 27.2857V20.7143ZM31.7142 18C31.7142 18.9468 30.9467 19.7143 29.9999 19.7143C29.0532 19.7143 28.2857 18.9468 28.2857 18C28.2857 17.0532 29.0532 16.2857 29.9999 16.2857C30.9467 16.2857 31.7142 17.0532 31.7142 18ZM23.9999 28.2857C26.3669 28.2857 28.2857 26.3669 28.2857 24C28.2857 21.6331 26.3669 19.7143 23.9999 19.7143C21.633 19.7143 19.7142 21.6331 19.7142 24C19.7142 26.3669 21.633 28.2857 23.9999 28.2857Z" fill="#FF7CF8"/>
</svg>
